
<svg width="239px" height="163px" viewBox="0 0 239 163" version="1.1" xmlns="http://www.w3.org/2000/svg" xmlns:xlink="http://www.w3.org/1999/xlink">
    <g id="Onboarding" stroke="none" stroke-width="1" fill="none" fill-rule="evenodd">
        <g id="Onboarding-Screen-5" transform="translate(-81, -317)" fill-rule="nonzero">
            <g id="explore" transform="translate(81, 317)">
                <circle id="Oval" fill="#FF6584" cx="71" cy="13" r="13"></circle>
                <path d="M95.187256,2.12906028 C88.9887242,1.27925569 81.9120736,4.67742097 80.3055156,10.8087554 C79.4747549,8.57186475 77.3132064,7.13661329 74.9596035,7.25911119 C72.6060006,7.3816091 70.6006509,9.03373499 70,11.3451263 L70.7096407,11.8606345 C83.992937,14.774153 97.7432212,14.7110973 111,11.6758718 C106.688325,7.07984463 101.385793,2.97885214 95.187256,2.12906028 Z" id="Path" fill="#F0F0F0"></path>
                <path d="M67.187256,20.1290603 C60.9887242,19.2792557 53.9120736,22.677421 52.3055156,28.8087554 C51.4747549,26.5718647 49.3132064,25.1366133 46.9596035,25.2591112 C44.6060006,25.3816091 42.6006509,27.033735 42,29.3451263 L42.7096407,29.8606345 C55.992937,32.774153 69.7432212,32.7110973 83,29.6758718 C78.6883253,25.0798446 73.3857929,20.9788521 67.187256,20.1290603 Z" id="Path" fill="#F0F0F0"></path>
                <path d="M115.8217,54.7331024 C113.671339,51.2333599 111.123268,47.4966743 107.132768,46.3539207 C102.511491,45.030527 97.7642862,47.6594978 93.7375604,50.2537509 C81.6953355,58.0123155 70.0984355,66.4203986 59,75.4394725 L59.0121424,75.5753256 C67.6527081,74.988965 76.2932627,74.4026103 84.9338061,73.8162614 C91.1766164,73.3926155 97.6338998,72.9105394 103.150818,70.0044268 C105.244299,68.901672 107.28498,67.42861 109.657252,67.3259619 C112.604564,67.1984455 115.174435,69.2239979 117.193995,71.340232 C129.140347,83.8584508 132.597387,103.0018 146,114 C137.548723,93.4903047 127.457648,73.6725317 115.8217,54.7331024 L115.8217,54.7331024 Z" id="Path" fill="#F2F2F2"></path>
                <path d="M188.368076,162.866196 C187.051761,161.200815 186.513907,160.810772 185.215474,159.129995 C174.643189,145.429743 164.706092,131.266732 155.404183,116.640962 C149.085973,106.707695 143.081063,96.5836826 137.389455,86.2689256 C134.679792,81.3651607 132.044411,76.4229046 129.483312,71.4421575 C127.495959,67.580218 125.552958,63.6951839 123.65431,59.7870551 C123.111329,58.6708135 122.583727,57.5494397 122.058745,56.4254999 C120.821717,53.782445 119.607694,51.1265597 118.304136,48.5194298 C116.818747,45.5479176 115.010596,42.4327053 112.282926,40.4363007 C111.041621,39.490456 109.557254,38.918163 108.00333,38.786316 C105.782878,38.6426159 103.733999,39.5612699 101.808047,40.5646044 C87.7168813,47.926667 74.5247175,57.1568306 62.5925964,67.6597663 C50.6298665,78.1862852 39.9371504,90.07873 30.7324269,103.094664 C30.4508059,103.497538 29.7848972,103.112627 30.0691433,102.707188 C31.1883742,101.121341 32.3297808,99.5526151 33.4933632,98.0010101 C47.9617282,78.7210899 65.7021126,62.1414037 85.9035977,49.019814 C89.3023073,46.8129914 92.7649181,44.7096672 96.29143,42.7098412 C98.0688172,41.7013746 99.8539595,40.7057384 101.669738,39.7716879 C103.449752,38.8555999 105.339813,38.0318906 107.373305,38 C114.293394,37.8933227 117.876438,45.7455052 120.337618,51.0290489 C121.11107,52.6918641 121.893905,54.349547 122.686125,56.0020979 C125.680034,62.2761354 128.789201,68.4928743 132.013626,74.6523144 C134.0036,78.4552342 136.03714,82.2359147 138.114246,85.9943559 C144.578393,97.6982136 151.448967,109.165137 158.725969,120.395127 C168.365979,135.27065 177.929088,148.411509 188.911044,162.322189 C189.213316,162.7071 188.672957,163.256242 188.368076,162.866196 Z" id="Path" fill="#E4E4E4"></path>
                <path d="M62.3531332,62.8310854 C61.9497898,62.3777152 61.5489541,61.9243449 61.1429642,61.4709746 C57.9415406,57.9010077 54.5064105,54.3724917 50.1101441,52.3258488 C48.013986,51.3191768 45.7257226,50.784355 43.4040866,50.758483 C41.0043447,50.7662551 38.658549,51.4009735 36.4412189,52.2895792 C35.3929017,52.7118612 34.367665,53.1911383 33.3579859,53.7015037 C32.2042837,54.286999 31.0711545,54.9113546 29.9433053,55.5408916 C27.8260937,56.722245 25.7363554,57.9554121 23.6740905,59.240393 C19.5707664,61.7974012 15.5959523,64.5495746 11.7496482,67.4969131 C9.75575737,69.0254186 7.80301743,70.6040106 5.89142837,72.2326893 C4.11345121,73.7456506 2.37143825,75.2991994 0.665389494,76.8933356 C0.300560807,77.2327156 -0.24416425,76.6834899 0.120654159,76.3441099 C0.570292309,75.9218279 1.02506918,75.5021366 1.47984605,75.0876266 C2.76452648,73.916636 4.06978235,72.768098 5.39561366,71.6420126 C7.81329487,69.585007 10.2935846,67.6074491 12.8364827,65.7093389 C16.7907633,62.7559555 20.8811653,60.0029186 25.1076885,57.4502281 C27.2197596,56.17561 29.3608937,54.9545328 31.5310906,53.7869964 C32.1863522,53.4346629 32.8492678,53.0901015 33.5198376,52.7636749 C35.041418,51.9897976 36.6224069,51.3408867 38.2474359,50.8232502 C40.5493628,50.0723995 42.984858,49.8311584 45.3876897,50.1159926 C47.7077101,50.4562611 49.94296,51.2359465 51.9755644,52.4139322 C56.2920418,54.8465875 59.6398624,58.6082653 62.8978583,62.2792691 C63.2268161,62.652328 62.684591,63.2041444 62.3531332,62.8310854 Z" id="Path" fill="#E4E4E4"></path>
                <path d="M150.466296,99.3948821 L160.79313,95.6586612 L165.920439,93.8036113 C167.590316,93.1994544 169.25618,92.5116667 170.982435,92.0790596 C172.50867,91.6965781 174.059465,91.6339832 175.564162,92.1368053 C176.891828,92.6229026 178.107127,93.3681106 179.137803,94.3281214 C180.190759,95.2872804 181.17048,96.3222363 182.068935,97.424503 C183.185247,98.7515437 184.285067,100.092497 185.38982,101.428955 C189.949353,106.944789 194.479072,112.484561 198.978978,118.048269 C203.478781,123.611888 207.948501,129.199144 212.388137,134.810036 C216.838621,140.434644 221.258501,146.082773 225.647776,151.754421 C226.185467,152.449221 226.722699,153.144366 227.259473,153.839858 C227.556033,154.224077 228.224725,153.845291 227.923979,153.455643 C223.502325,147.72696 219.049852,142.021727 214.56656,136.339944 C210.072241,130.64458 205.546869,124.973373 200.990442,119.326324 C196.434106,113.679385 191.846979,108.056935 187.229061,102.458972 C186.078599,101.06435 184.926238,99.6712659 183.771978,98.2797196 C182.798319,97.1058953 181.835637,95.9194141 180.767698,94.8268708 C178.807418,92.8214236 176.3583,91.0491493 173.426665,91.0010612 C171.703022,90.972791 170.0349,91.5138253 168.43346,92.0869055 C166.70703,92.7047116 164.984746,93.3340836 163.260525,93.957896 L152.861477,97.7202505 L150.261715,98.6608385 C149.800353,98.8277573 150,99.5637244 150.466296,99.3948948 L150.466296,99.3948821 Z" id="Path" fill="#E4E4E4"></path>
                <path d="M49.6388791,56.8540751 C44.4385291,53.9479111 37.7787541,54.5171004 33,58.1479258 C42.1151168,59.8578606 51.1304982,62.1457888 60,65 C56.3168549,62.6530471 53.4357515,58.9759322 49.6388791,56.8540751 Z" id="Path" fill="#F2F2F2"></path>
                <path d="M31.9513589,59 L31,60 C31.3217979,59.6499967 31.6563262,59.3218448 32,59.011299 C31.9837694,59.0076847 31.9675943,59.0036237 31.9513589,59 Z" id="Path" fill="#F2F2F2"></path>
                <path d="M178.951,100.030258 C177.955501,98.7950485 176.879197,97.5017141 175.390182,97 L174,97.0558897 C184.582487,116.116966 198.87491,132.772441 216,146 C203.650333,130.676757 191.300667,115.353509 178.951,100.030258 Z" id="Path" fill="#F2F2F2"></path>
                <path d="M74.1303972,148.583656 C74.6941172,144.003408 77.5033883,139.490537 81.8264461,138 C80.1215547,142.714355 80.1219246,147.886102 81.8274905,152.600208 C82.4917772,154.415827 83.4177216,156.365353 82.7928826,158.195228 C82.4041099,159.333827 81.4530263,160.204956 80.3898957,160.749649 C79.3267102,161.294342 78.1468081,161.553954 76.9816468,161.80837 L76.7523387,162 C74.9026809,157.779801 73.5666797,153.163903 74.1303972,148.583656 Z" id="Path" fill="#F0F0F0"></path>
                <path d="M80.9737027,138.183977 C78.5749722,141.037883 77.0840906,144.621784 76.7128192,148.426634 C76.6191997,149.244224 76.6475336,150.072374 76.7967776,150.880596 C76.9661201,151.662919 77.3296683,152.382818 77.8496483,152.965493 C78.3241992,153.519127 78.8699917,154.027077 79.2095365,154.693558 C79.5514291,155.389118 79.5975029,156.206552 79.3361799,156.940447 C79.0363969,157.853459 78.4455412,158.597619 77.8439137,159.30404 C77.1759245,160.088392 76.4703876,160.891829 76.1864421,161.931659 C76.1520365,162.057651 75.9699391,161.993589 76.0042923,161.867799 C76.498311,160.058673 78.1522308,159.031054 78.9409668,157.401599 C79.309011,156.641261 79.4634898,155.758549 79.1184556,154.95594 C78.8167372,154.254091 78.2543287,153.729777 77.7692774,153.173621 C77.2541747,152.613099 76.8761637,151.927176 76.6682655,151.17577 C76.4807498,150.378226 76.4224174,149.552615 76.4957662,148.73429 C76.6332226,146.889182 77.0430389,145.078497 77.7102025,143.368565 C78.4614427,141.412547 79.5222638,139.607398 80.8467689,138.03122 C80.9287847,137.9337 81.0551758,138.087097 80.9736955,138.183982 L80.9737027,138.183977 Z" id="Path" fill="#FFFFFF"></path>
                <path d="M76.8800335,146.996772 C75.7086782,146.676541 74.9158189,145.447897 75.0071461,144.094476 C75.0164984,143.961918 75.1998665,143.972054 75.1905028,144.104787 C75.10336,145.365381 75.8448562,146.509506 76.9375801,146.800519 C77.0524776,146.831279 76.9942749,147.027358 76.8800335,146.996772 L76.8800335,146.996772 Z" id="Path" fill="#FFFFFF"></path>
                <path d="M78.0394862,151.82115 C78.9140581,151.203308 79.5596769,150.218156 79.8476071,149.062134 C79.8760546,148.94757 80.024824,149.00584 79.9964116,149.120264 C79.6948894,150.322591 79.0212618,151.346181 78.109965,151.986755 C78.0230689,152.047729 77.9530627,151.881813 78.0394862,151.821159 L78.0394862,151.82115 Z" id="Path" fill="#FFFFFF"></path>
                <path d="M78.1528338,140.970154 C78.6926851,141.020441 79.3253499,141.014145 79.836448,140.9534 C79.9652346,140.937989 80.0696934,140.97908 79.9417465,140.994391 C79.3757203,141.06096 78.6781729,141.068206 78.079429,141.013734 C78.0194995,141.009433 77.9869124,140.996748 78.0049696,140.984749 C78.0255047,140.972759 78.0914678,140.966248 78.1528338,140.970154 L78.1528338,140.970154 Z" id="Path" fill="#FFFFFF"></path>
                <path d="M94,146.470122 C93.9333409,146.513217 93.866699,146.556309 93.7999688,146.601064 C92.906916,147.185048 92.0630482,147.840217 91.2766924,148.560105 C91.2150058,148.614803 91.1533216,148.671161 91.0933431,148.727506 C89.2174274,150.481962 87.6853637,152.567513 86.5750339,154.878141 C86.1340564,155.797998 85.764092,156.749886 85.4683437,157.725562 C85.0599785,159.073025 84.7250166,160.566345 83.9166674,161.668518 C83.8336302,161.784451 83.7434505,161.895157 83.6466467,162 L76.3416351,162 C76.3250341,161.991714 76.3083497,161.985078 76.2916678,161.976794 L76,161.990054 C76.0117193,161.938676 76.0249849,161.885637 76.0367042,161.834259 C76.0433774,161.804427 76.0516779,161.774594 76.0583512,161.744762 C76.0633139,161.724875 76.0683599,161.704977 76.0716977,161.686759 C76.073325,161.680133 76.0750331,161.673509 76.0766604,161.66853 C76.0799982,161.650301 76.0850442,161.633721 76.0883796,161.617151 C76.161703,161.320477 76.2372508,161.023803 76.315023,160.727129 C76.315023,160.725469 76.315023,160.725469 76.3166502,160.72381 C76.8875247,158.457538 77.7267213,156.26661 78.81665,154.19695 C78.8500163,154.135628 78.883309,154.072644 78.9200034,154.011322 C79.4247092,153.095172 80.0038672,152.221576 80.6516935,151.399257 C81.0078785,150.950115 81.3867001,150.519193 81.786704,150.108145 C82.8223043,149.04803 84.0191402,148.156501 85.3333346,147.46624 C87.9533795,146.090598 90.9866543,145.563545 93.7867032,146.403848 C93.8583176,146.425368 93.9283856,146.446904 94,146.470122 Z" id="Path" fill="#F0F0F0"></path>
                <path d="M93.9144792,146.203698 C90.2839893,146.943031 86.9729942,148.836489 84.4517804,151.615128 C83.898664,152.203425 83.4394438,152.877441 83.0910258,153.612362 C82.7741833,154.339515 82.6530291,155.140398 82.7401516,155.931798 C82.8069247,156.671375 82.9587564,157.419953 82.8490333,158.163295 C82.7242899,158.931163 82.2858612,159.607943 81.6439211,160.023565 C80.8660882,160.55668 79.9478239,160.771419 79.0427062,160.949439 C78.0377617,161.147083 76.9908821,161.336048 76.152156,161.97968 C76.0505313,162.057676 75.9384577,161.891425 76.0399283,161.813558 C77.499172,160.693749 79.4546692,160.928739 81.0510276,160.138204 C81.7959167,159.769325 82.4369016,159.168044 82.6214301,158.313379 C82.782791,157.566013 82.6268648,156.793936 82.5529449,156.045699 C82.4569175,155.274942 82.5464124,154.4918 82.8136118,153.764682 C83.1244133,153.013945 83.5575448,152.322912 84.0944588,151.721174 C85.2821538,150.3467 86.6732321,149.172248 88.216735,148.240843 C89.9725755,147.167824 91.8944943,146.410683 93.8993391,146.002179 C94.0234343,145.976947 94.037755,146.178635 93.9144694,146.203701 L93.9144792,146.203698 Z" id="Path" fill="#FFFFFF"></path>
                <path d="M85.7167545,149.967856 C84.734315,149.107719 84.7650078,147.863556 85.7892567,147.028904 C85.8899896,146.947381 86.0712818,147.055867 85.9704142,147.137499 C85.0142762,147.91375 84.9889579,149.074095 85.9107606,149.871441 C86.0075747,149.955387 85.8130151,150.051322 85.7167545,149.967863 L85.7167545,149.967856 Z" id="Path" fill="#FFFFFF"></path>
                <path d="M83.1184347,154.814517 C84.4424999,154.927677 85.7719329,154.642602 86.8416447,154.016134 C86.9475666,153.953996 87.0641041,154.08707 86.9583119,154.149131 C85.843601,154.799408 84.4593554,155.093853 83.0818281,154.973704 C82.9505407,154.962179 82.9878541,154.803056 83.1184296,154.814517 L83.1184347,154.814517 Z" id="Path" fill="#FFFFFF"></path>
                <path d="M90.1245352,147.040912 C90.287126,147.472875 90.5954404,147.762503 90.9450046,147.811655 C91.033275,147.823693 91.0081147,148.011412 90.9204182,147.999452 C90.534557,147.942681 90.1940749,147.62436 90.0113966,147.149598 C89.9910317,147.105902 89.9986408,147.047782 90.0287822,147.016804 C90.0600675,146.987071 90.1027825,146.997826 90.1245352,147.040912 L90.1245352,147.040912 Z" id="Path" fill="#FFFFFF"></path>
                <path d="M128.509498,122.996901 C124.803055,114.641505 124.939715,104.050648 130.691984,97 C132.616449,106.776866 137.872123,115.544872 145.529123,121.752705 C148.490632,124.135896 152.028007,126.472313 152.837019,130.228585 C153.34045,132.565816 152.626892,135.037949 151.393315,137.073866 C150.159627,139.10985 148.440051,140.784635 146.740018,142.435162 L146.549282,143 C139.15194,137.780329 132.215942,131.352303 128.509498,122.996901 Z" id="Path" fill="#F0F0F0"></path>
                <path d="M131.946194,97.2608451 C130.633777,104.732492 131.623027,112.443382 134.773434,119.29828 C135.426403,120.78648 136.301309,122.158554 137.365941,123.363991 C138.439592,124.503459 139.78765,125.323739 141.27005,125.739602 C142.644736,126.156173 144.09737,126.41706 145.350551,127.173203 C146.636799,127.976048 147.531769,129.310479 147.810563,130.841162 C148.201288,132.717582 147.919092,134.627807 147.580581,136.485894 C147.204727,138.548946 146.782843,140.68563 147.327497,142.759543 C147.393488,143.010826 147.013956,143.102409 146.948064,142.851504 C146.000474,139.243251 147.842823,135.684546 147.585306,132.056843 C147.465141,130.364089 146.852737,128.698662 145.454297,127.717894 C144.231424,126.860253 142.733677,126.589908 141.338266,126.180594 C139.886414,125.796908 138.547165,125.050089 137.43751,124.005376 C136.31718,122.860092 135.392803,121.525286 134.703961,120.05812 C133.102392,116.780723 132.007286,113.262349 131.45876,109.631886 C130.810592,105.492071 130.849521,101.267683 131.573863,97.1414927 C131.618798,96.8861253 131.990853,97.0071505 131.946214,97.2608477 L131.946194,97.2608451 Z" id="Path" fill="#FFFFFF"></path>
                <path d="M132.847125,116.760767 C130.185098,117.508268 127.296963,116.455987 126.024788,114.275076 C125.900993,114.061042 126.274781,113.882436 126.398742,114.096754 C127.579546,116.130285 130.275293,117.106812 132.750331,116.3976 C133.010743,116.323276 133.106053,116.686867 132.847125,116.760767 L132.847125,116.760767 Z" id="Path" fill="#FFFFFF"></path>
                <path d="M140.015718,124.692381 C140.766593,122.400486 140.951792,119.738448 140.534386,117.237079 C140.492905,116.989304 140.734609,116.89901 140.776039,117.146484 C141.207375,119.75077 141.011138,122.520402 140.226492,124.902642 C140.151611,125.129621 139.941235,124.918127 140.015714,124.692381 L140.015718,124.692381 Z" id="Path" fill="#FFFFFF"></path>
                <path d="M130.159854,105.628032 C131.211555,105.527158 132.137191,104.950398 132.623105,104.093191 C132.745052,103.876459 133.096097,104.077399 132.974941,104.292719 C132.433492,105.237103 131.414357,105.875148 130.254048,105.996175 C130.143328,106.016386 130.034445,105.954638 130.005262,105.855088 C129.979864,105.753521 130.048827,105.652232 130.159854,105.628032 L130.159854,105.628032 Z" id="Path" fill="#FFFFFF"></path>
                <path d="M162,98 C161.930941,98.1453364 161.861882,98.2906703 161.794435,98.4389792 C160.876043,100.397751 160.117328,102.428356 159.525775,104.510758 C159.477496,104.671026 159.430969,104.83418 159.387368,104.99551 C158.01533,110.02776 157.58377,115.272574 158.114625,120.463335 C158.32775,122.528664 158.696735,124.574686 159.218384,126.583688 C159.938955,129.358162 160.939646,132.308711 160.713836,135.07911 C160.693501,135.368414 160.655375,135.656172 160.599678,135.940733 L148.044787,143.65645 C148.007509,143.659579 147.971818,143.665659 147.934412,143.668873 L147.447135,144 C147.413038,143.898278 147.379848,143.792037 147.345753,143.690315 C147.325729,143.63139 147.308506,143.570749 147.288484,143.511825 C147.276026,143.471997 147.263687,143.432067 147.250179,143.396844 C147.245981,143.383603 147.241923,143.370275 147.239467,143.359901 C147.225959,143.324678 147.217129,143.290519 147.20537,143.258179 C147.018218,142.664844 146.834884,142.069154 146.65537,141.471109 C146.653618,141.468223 146.653618,141.468223 146.654663,141.463618 C145.298404,136.903284 144.308615,132.188962 144.061452,127.473355 C144.054064,127.331477 144.044784,127.186801 144.043129,127.041398 C143.943442,124.915199 144.016635,122.784358 144.261976,120.670157 C144.400017,119.512922 144.596195,118.363461 144.849755,117.226186 C145.510532,114.288906 146.62638,111.474482 148.156389,108.886092 C151.207204,103.726612 155.864045,99.6062828 161.56344,98.1100339 C161.709262,98.0718458 161.852421,98.0352872 162,98 Z" id="Path" fill="#F0F0F0"></path>
                <path d="M161.930436,97.3746138 C156.382406,102.471823 152.58571,109.182998 151.079624,116.554896 C150.727149,118.136156 150.62678,119.762947 150.782211,121.37538 C150.984514,122.941216 151.603535,124.424454 152.574955,125.670981 C153.457294,126.851398 154.496887,127.956923 155.076167,129.330701 C155.65474,130.76189 155.593396,132.371329 154.907551,133.754577 C154.10709,135.480564 152.732566,136.816753 151.342867,138.076836 C149.799873,139.47593 148.174958,140.90476 147.383089,142.882232 C147.287142,143.12183 146.920002,142.959332 147.015802,142.720096 C148.393523,139.279637 152.037889,137.60535 153.995213,134.576656 C154.908529,133.163413 155.400367,131.467088 154.835849,129.825723 C154.342203,128.390422 153.271145,127.24948 152.367398,126.061985 C151.401879,124.859809 150.746183,123.440122 150.457588,121.926937 C150.220346,120.327603 150.257713,118.699664 150.568086,117.112833 C151.209702,113.529246 152.412262,110.068562 154.131712,106.857557 C156.073732,103.182008 158.631842,99.8648821 161.695363,97.0496953 C161.885048,96.8755449 162.118901,97.2015647 161.930456,97.3745856 L161.930436,97.3746138 Z" id="Path" fill="#FFFFFF"></path>
                <path d="M151.708991,113.986099 C149.150252,113.002668 147.615541,110.123669 148.083708,107.185351 C148.130471,106.897664 148.53882,106.964135 148.491997,107.252205 C148.05129,109.988489 149.487537,112.670204 151.876012,113.570734 C152.127128,113.665775 151.958668,114.080598 151.708991,113.986099 L151.708991,113.986099 Z" id="Path" fill="#FFFFFF"></path>
                <path d="M152.104228,125.540346 C154.176567,124.243385 155.804564,121.957075 156.663597,119.13731 C156.748545,118.857843 157.070736,119.047564 156.9859,119.326697 C156.087847,122.258793 154.390026,124.633476 152.231272,125.976832 C152.025445,126.104683 151.89953,125.66751 152.104237,125.540343 L152.104228,125.540346 Z" id="Path" fill="#FFFFFF"></path>
                <path d="M157.244918,103.01974 C158.013201,103.636507 158.962291,103.696169 159.770584,103.178512 C159.974334,103.047008 160.099573,103.485179 159.897148,103.615822 C159.002512,104.181955 157.955862,104.119263 157.102795,103.448445 C157.016547,103.393012 156.977378,103.257675 157.0133,103.139219 C157.052909,103.021344 157.156234,102.968045 157.244918,103.01974 L157.244918,103.01974 Z" id="Path" fill="#FFFFFF"></path>
                <polygon id="Path" fill="#3F3D56" points="184.999934 132.8986 199.118428 122 206 128.997123 183 145"></polygon>
                <path d="M172.824125,162 L124,162 L125.712386,156.460206 L125.712386,156.460206 C136.325541,152.624132 130.36412,144.378708 140.459672,139.338753 C165.152819,127.011301 174.712539,90.2249112 171.09666,75.6831496 L187.278595,75 C187.278595,75 209.625949,138.364809 172.824125,162 Z" id="Path" fill="#3F3D56"></path>
                <path d="M214.392186,135.932349 C211.308287,138.611387 206.716032,138.696259 203.532852,136.133046 L203.500353,136.106675 L203.499238,136.065395 C203.480946,135.377771 203.372439,134.695395 203.176432,134.035348 C203.166569,134.510515 203.0964,134.982583 202.967568,135.440494 L202.925686,135.59458 L202.813379,135.48005 C202.716384,135.381244 202.622508,135.280877 202.53435,135.181865 C202.015701,134.600376 201.581301,133.950561 201.243593,133.251034 C199.626793,129.966335 197.284286,127.082007 194.388794,124.810719 C193.871839,124.395335 193.390824,123.938116 192.950744,123.443808 C189.110605,119.127825 189.007417,112.697185 192.707151,108.263137 C196.406885,103.829089 202.816581,102.701522 207.838378,105.601314 L207.912456,105.644156 L207.873989,105.719899 C207.592455,106.297175 207.22061,106.82703 206.77213,107.289976 C207.388727,106.960921 207.959208,106.55377 208.469116,106.078838 L208.52295,106.028687 L208.583952,106.070242 C209.382627,106.61598 210.11071,107.256199 210.751975,107.976628 L210.821084,108.054898 C211.811095,109.173475 213.236135,109.8231 214.740114,109.841443 C217.195497,109.88225 219.509878,110.982296 221.074375,112.852173 C222.638872,114.722051 223.296834,117.174531 222.875159,119.564399 L222.865644,119.61923 L222.811655,119.635385 C221.868807,119.955261 220.869048,120.078488 219.875541,119.997283 C220.705125,120.354201 221.588847,120.572852 222.490797,120.64435 L222.607309,120.653484 L222.570324,120.763078 C222.100444,122.156822 221.264251,123.402268 220.147268,124.372039 L220.115372,124.399609 C220.104057,124.409292 220.092742,124.419125 220.081508,124.428889 C218.400065,125.85913 217.372726,127.898172 217.231434,130.085657 C217.119588,132.332468 216.096128,134.440017 214.392186,135.932349 L214.392186,135.932349 Z" id="Path" fill="#00B4D8"></path>
                <path d="M216.065935,134.261539 C216.05537,134.508908 216.03336,134.755424 216,135 C216.571441,133.972164 216.90022,132.785345 216.95288,131.560318 C216.960654,131.372784 216.977457,131.185975 217,131 C216.444825,131.969529 216.122225,133.095973 216.065935,134.261539 L216.065935,134.261539 Z" id="Path" fill="#000000" opacity="0.15"></path>
                <path d="M218,123.367557 C218.700988,123.676882 219.439341,123.889572 220.195528,124 C220.486868,123.686745 220.755719,123.35255 221,123 C220.034918,123.328996 219.014127,123.454062 218,123.367557 L218,123.367557 Z" id="Path" fill="#000000" opacity="0.15"></path>
                <path d="M222.060847,121 C222.136463,121.666238 222.11601,122.3385 222,123 C222.405592,122.443843 222.7291,121.842433 222.96236,121.210945 L223,121.109168 L222.881429,121.100686 C222.606207,121.079507 222.332336,121.045903 222.060847,121 L222.060847,121 Z" id="Path" fill="#000000" opacity="0.15"></path>
                <path d="M220.950593,114.154543 C219.420856,112.503961 217.23175,111.541314 214.91863,111.502021 C213.447546,111.484749 212.053676,110.873011 211.085319,109.81967 L211.017729,109.745965 C210.390492,109.067557 209.678337,108.46468 208.897137,107.95077 L208.837467,107.911643 L208.78481,107.958865 C208.28605,108.406099 207.728041,108.789504 207.124924,109.099364 C207.563602,108.663418 207.927326,108.164467 208.202718,107.62086 L208.240322,107.549537 L208.167875,107.509199 C204.970162,105.729321 201.070297,105.51107 197.675157,106.921986 C194.280016,108.332903 191.799038,111.202837 191,114.643642 C192.532464,112.083482 195.078769,110.213285 198.070691,109.450399 C201.062614,108.687514 204.251142,109.095432 206.924734,110.583124 L206.997181,110.623462 L206.959576,110.694785 C206.684185,111.238393 206.320462,111.737344 205.881783,112.173289 C206.484901,111.863431 207.04291,111.480027 207.541669,111.032792 L207.594328,110.98557 L207.653995,111.024697 C208.435196,111.538607 209.14735,112.141484 209.774588,112.819892 L209.842178,112.893597 C210.810535,113.946937 212.204405,114.558675 213.675488,114.575949 C217.597466,114.638987 220.925983,117.329069 221.624153,121 C222.026186,120.931524 222.423409,120.839596 222.813573,120.724736 L222.866383,120.709525 L222.875732,120.657903 C223.308063,118.32445 222.599477,115.930758 220.950593,114.154543 Z" id="Path" fill="#000000" opacity="0.15"></path>
                <path d="M238,78.792954 C237.99879,91.602448 228.718529,102.534891 216.054902,104.644977 L215.925133,104.666101 L215.824723,104.582626 C214.152917,103.191526 212.307309,102.022664 210.334094,101.105297 C211.4429,102.119283 212.41982,103.268052 213.241969,104.524693 L213.521658,104.944112 L213.017606,104.968302 C212.582534,104.989427 212.150196,105 211.732884,105 C209.280172,105.002102 206.839044,104.66441 204.479435,103.996586 C193.760792,100.953998 182.250552,100.43373 170.268703,102.450084 C168.214208,102.794619 166.134508,102.967734 164.051193,102.96763 C143.621156,102.96763 127,86.3813278 127,65.9943575 C126.9774,50.0506152 137.217151,35.89409 152.390692,30.8916061 L152.645452,30.8074506 L152.746023,31.0554893 C153.536535,32.9186981 154.027887,34.8945324 154.202006,36.9103221 C154.693186,34.780002 154.903562,32.5948294 154.827802,30.4101782 L154.819777,30.1795141 L155.044486,30.1232965 C157.990431,29.390791 161.015138,29.0206381 164.051193,29.0210875 L164.379886,29.0224487 C169.082163,29.0363895 173.568278,27.0535194 176.717235,23.5693211 C181.88401,17.903701 189.27677,14.7772061 196.950583,15.0123739 C204.624396,15.2475417 211.810891,18.8208251 216.6194,24.7921427 L216.730045,24.9287736 L216.656974,25.0889097 C215.122275,28.4636841 213.450293,30.9222766 211.454562,32.7202253 C214.015627,31.5215723 216.359902,29.907783 218.392124,27.9444355 L218.654396,27.6906027 L218.838463,28.005764 C221.180296,32.012712 222.413372,36.5683458 222.411576,41.206731 L222.411233,41.3389291 C222.410894,41.3856054 222.410894,41.4326258 222.410894,41.4793021 C222.410894,48.5746803 225.160987,55.2996764 229.968616,59.9507777 C235.076887,64.8981245 237.971949,71.6901375 238,78.792954 L238,78.792954 Z" id="Path" fill="#00B4D8"></path>
                <g id="Group" opacity="0.15" transform="translate(130, 17)" fill="#000000">
                    <path d="M75.7196482,0 C74.8092933,1.49718215 73.689235,2.858827 72.3929435,4.04424525 C74.24906,3.18067013 75.9940914,2.0998397 77.590735,0.824858435 C76.9782556,0.525865926 76.35456,0.250913115 75.7196482,0 Z" id="Path"></path>
                    <path d="M91.0029759,31.2317068 C92.4389917,32.6126351 93.7126167,34.1502463 94.7995158,35.8151617 C93.1638027,32.2918511 92.320921,28.458147 92.3293103,24.5798514 C92.3293103,24.5332413 92.3293103,24.4862979 92.3296493,24.4397031 L92.3299883,24.3077117 C92.3317891,19.6766714 91.0923261,15.1282514 88.7383656,11.1276419 L88.5533366,10.8129719 L88.2896872,11.0664004 C86.8339369,12.4607516 85.2176122,13.6804308 83.4740807,14.7002588 C83.9235167,21.0705248 86.6072916,27.0077785 91.0029759,31.2317068 Z" id="Path"></path>
                    <path d="M83.4067475,12.5173259 L83.4064085,12.6493199 C83.4060695,12.6959147 83.4060695,12.7428581 83.4060695,12.7894656 C83.4060695,13.0463019 83.4107641,13.3024892 83.4180013,13.558282 C84.6614914,11.9005458 85.7107505,10.1080745 86.5455622,8.21540453 L86.6190129,8.05551429 L86.5078096,7.91909959 C85.1148546,6.20135186 83.5101731,4.66335736 81.7312706,3.34106313 C82.8388856,6.27594806 83.4063613,9.38390326 83.4067475,12.5173259 L83.4067475,12.5173259 Z" id="Path"></path>
                    <path d="M99.9262168,43.02209 C98.6560028,41.7976259 97.5273184,40.4368099 96.561025,38.9647938 C100.069032,46.3710657 99.875337,54.9778192 96.0376272,62.2217433 C92.1999174,69.4656674 85.1609582,74.511014 77.0171314,75.8551501 L76.8866845,75.8762486 L76.785772,75.7929033 C75.1052886,74.4040138 73.2501111,73.2370013 71.2666698,72.3210729 C72.3812202,73.3334528 73.363198,74.4804048 74.1895986,75.7350594 L74.4707478,76.153822 L73.9640973,76.1779669 C73.5267447,76.1990628 73.0921915,76.2096044 72.6727136,76.2096044 C70.2072817,76.2117151 67.7534954,75.8745569 65.3816496,75.2077886 C54.6074361,72.1700344 43.0375258,71.6505718 30.9935709,73.6637422 C28.9284292,74.0077248 26.8379525,74.1805617 24.7438424,74.1804587 C15.6157121,74.1873894 6.80563578,70.8579963 0,64.8295774 C6.16175716,77.7275479 19.2668896,85.9569234 33.6670832,85.9708419 C35.7611934,85.9709461 37.8516702,85.7981092 39.9168117,85.4541254 C51.9607666,83.4409678 63.5306744,83.9604176 74.3048879,86.9981718 C76.6767342,87.6649424 79.1305215,88.0021014 81.5959544,88 C82.0154169,88 82.449983,87.989446 82.8873356,87.9683501 L83.3939886,87.9442052 L83.1128369,87.5254426 C82.2864363,86.2707881 81.3044585,85.1238361 80.1899081,84.1114562 C82.1733495,85.0273802 84.0285271,86.1943894 85.7090103,87.5832763 L85.8099254,87.6666216 L85.9403697,87.6455257 C95.7784344,86.0236176 103.853391,79.0440269 106.811621,69.6054551 C109.76985,60.1668834 107.10593,49.8819415 99.9262142,43.0220799 L99.9262168,43.02209 Z" id="Path"></path>
                </g>
                <path d="M105.739236,72.9309374 C104.288771,71.3587962 103.536561,68.9996233 104.307831,67 C105.462982,69.0224416 107.292045,70.5686796 109.471407,71.3651399 C110.313003,71.6692363 111.280537,71.9193138 111.739991,72.6910584 C112.005602,73.1901233 112.070621,73.7727159 111.92163,74.3186028 C111.77156,74.8582777 111.553373,75.3763874 111.272396,75.860278 L111.271295,76 C109.223338,75.4030154 107.189699,74.5030787 105.739236,72.9309374 Z" id="Path" fill="#00B4D8"></path>
                <path d="M176.739234,117.930931 C175.288771,116.358791 174.536561,113.999622 175.307831,112 C176.462982,114.022442 178.292045,115.56868 180.471407,116.365143 C181.313003,116.669239 182.280537,116.919316 182.739991,117.69106 C183.005602,118.190125 183.070621,118.772717 182.92163,119.318604 C182.77156,119.858278 182.553373,120.376388 182.272396,120.860278 L182.271293,121 C180.223338,120.40301 178.189699,119.503072 176.739234,117.930931 Z" id="Path" fill="#00B4D8"></path>
                <path d="M208.833638,145.830591 C207.780304,144.027475 207.633263,141.664247 208.926594,140 C209.566263,142.148642 211.007346,144.018845 212.994876,145.279717 C213.76329,145.763414 214.672426,146.227426 214.935298,147.051818 C215.073581,147.577348 214.988375,148.131906 214.697265,148.601043 C214.406674,149.064173 214.053102,149.490973 213.645185,149.871022 L213.607946,150 C211.701076,148.955255 209.886972,147.633707 208.833638,145.830591 Z" id="Path" fill="#00B4D8"></path>
                <path d="M232.833639,109.830591 C231.780305,108.027475 231.633261,105.664247 232.926595,104 C233.566263,106.148642 235.007347,108.018845 236.994877,109.279717 C237.763291,109.763414 238.672427,110.227429 238.935299,111.051818 C239.073581,111.57735 238.988374,112.131907 238.697263,112.601045 C238.406673,113.064175 238.053101,113.490975 237.645183,113.871022 L237.607944,114 C235.701077,112.955255 233.886973,111.633709 232.833639,109.830591 Z" id="Path" fill="#00B4D8"></path>
                <path d="M76.833638,123.830592 C75.7803044,122.027474 75.6332629,119.664237 76.9265941,118 C77.5662622,120.148641 79.007346,122.018844 80.9948761,123.279716 C81.7632898,123.763412 82.6724265,124.227427 82.9352981,125.051816 C83.0735813,125.577348 82.9883745,126.131906 82.6972622,126.601043 C82.4066718,127.064172 82.0531011,127.490973 81.6451847,127.871022 L81.6079434,128 C79.7010762,126.955255 77.8869717,125.633707 76.833638,123.830592 Z" id="Path" fill="#E6E6E6"></path>
                <path d="M166.202841,141.875484 C167.079738,135.005113 171.449721,128.235814 178.174482,126 C175.522425,133.071533 175.523,140.829153 178.176104,147.900312 C179.209441,150.623747 180.649794,153.548032 179.67781,156.292843 C179.07305,158.000742 177.593584,159.307432 175.939842,160.124474 C174.285995,160.941513 172.450572,161.330929 170.638118,161.712556 L170.281416,162 C167.404173,155.669709 165.325944,148.745851 166.202841,141.875484 Z" id="Path" fill="#E6E6E6"></path>
                <path d="M177.957913,126.275967 C174.119956,130.556822 171.734554,135.932673 171.140525,141.639945 C170.990733,142.86633 171.036066,144.108555 171.274855,145.320887 C171.545803,146.494371 172.127478,147.574219 172.959443,148.448231 C173.718722,149.278678 174.591986,150.040607 175.135257,151.040326 C175.682283,152.083671 175.755995,153.309828 175.337871,154.41067 C174.858219,155.780171 173.912853,156.896431 172.950253,157.956059 C171.881472,159.132571 170.752618,160.337742 170.298305,161.897486 C170.243271,162.086471 169.951905,161.990395 170.006867,161.801695 C170.797297,159.088007 173.443543,157.546579 174.705532,155.102396 C175.2944,153.961896 175.541568,152.637826 174.989513,151.433909 C174.506757,150.381138 173.606922,149.594666 172.830836,148.76044 C172.006674,147.919658 171.401858,146.890773 171.069223,145.763663 C170.769197,144.567348 170.675865,143.328931 170.793225,142.101444 C171.013157,139.333777 171.668867,136.617745 172.736333,134.052844 C173.938316,131.118817 175.635627,128.411095 177.754833,126.046829 C177.886058,125.90055 178.08828,126.130646 177.957913,126.275972 L177.957913,126.275967 Z" id="Path" fill="#FFFFFF"></path>
                <path d="M170.820051,138.995696 C169.063018,138.568722 167.873728,136.930527 168.010719,135.125964 C168.024746,134.949229 168.299797,134.962736 168.285754,135.139714 C168.155041,136.820507 169.267284,138.346008 170.906368,138.734028 C171.078717,138.775043 170.991413,139.036476 170.820051,138.995696 L170.820051,138.995696 Z" id="Path" fill="#FFFFFF"></path>
                <path d="M173.078971,147.701934 C174.82812,146.672195 176.119359,145.030268 176.695213,143.103555 C176.752109,142.912617 177.049655,143.009733 176.992821,143.200439 C176.389775,145.204316 175.042521,146.910297 173.21993,147.977919 C173.046138,148.079561 172.906126,147.803014 173.078971,147.701924 L173.078971,147.701934 Z" id="Path" fill="#FFFFFF"></path>
                <path d="M175.152834,130.201537 C175.692685,130.704411 176.32535,130.641456 176.836448,130.034005 C176.965234,129.879893 177.069693,130.290805 176.941747,130.44391 C176.375721,131.109605 175.678173,131.182055 175.079429,130.637339 C175.019498,130.594336 174.98691,130.467481 175.004971,130.347492 C175.025507,130.227599 175.091468,130.162488 175.152834,130.201537 L175.152834,130.201537 Z" id="Path" fill="#FFFFFF"></path>
                <path d="M198,137.734585 C197.89632,137.80192 197.792642,137.869255 197.688837,137.93918 C196.299644,138.851656 194.98696,139.875358 193.763739,141.000183 C193.667781,141.085657 193.571825,141.173703 193.478528,141.261743 C190.560434,144.003078 188.17722,147.261749 186.450037,150.872103 C185.764073,152.309378 185.188573,153.796699 184.72852,155.321191 C184.093284,157.426612 183.572234,159.75991 182.314802,161.482062 C182.185632,161.663205 182.045353,161.836183 181.89477,162 L170.531431,162 C170.505606,161.987054 170.479656,161.976687 170.453703,161.96374 L170,161.984469 C170.018228,161.90419 170.038862,161.821319 170.057093,161.741037 C170.067472,161.694426 170.080384,161.647814 170.090765,161.601201 C170.098487,161.570125 170.106337,161.539035 170.111517,161.510552 C170.114048,161.500198 170.116708,161.489847 170.119239,161.482069 C170.124429,161.453587 170.132277,161.427681 170.137467,161.401791 C170.251526,160.938241 170.369045,160.474686 170.490024,160.011126 C170.490024,160.008533 170.490024,160.008533 170.492558,160.005941 C171.423384,156.476178 172.657397,152.993052 174.381445,149.807734 C174.433348,149.711918 174.485125,149.613498 174.542216,149.517691 C175.327314,148.086205 176.228226,146.721209 177.235957,145.436335 C177.790023,144.734551 178.3793,144.061234 179.001527,143.41897 C180.612465,141.762544 182.474213,140.369531 184.518518,139.291 C188.594129,137.141558 193.312572,136.318038 197.668203,137.631014 C197.779602,137.664673 197.888598,137.698326 198,137.734585 Z" id="Path" fill="#E6E6E6"></path>
                <path d="M198.86694,138.305546 C193.219513,139.414546 188.069078,142.254733 184.14719,146.422693 C183.286787,147.305139 182.572444,148.316164 182.03046,149.418547 C181.537595,150.509277 181.349134,151.710602 181.484657,152.897701 C181.588528,154.007067 181.82471,155.129935 181.654029,156.244946 C181.459984,157.39675 180.777984,158.411921 179.779411,159.035355 C178.56945,159.835027 177.141038,160.157152 175.733098,160.424164 C174.169849,160.720631 172.541372,161.004081 171.236684,161.969526 C171.078603,162.086505 170.904268,161.837141 171.062111,161.720342 C173.332043,160.040628 176.373927,160.393114 178.857149,159.20731 C180.015867,158.653994 181.012955,157.752068 181.299997,156.470072 C181.551005,155.349022 181.308453,154.190907 181.193462,153.068549 C181.044085,151.912413 181.1833,150.737699 181.598945,149.647023 C182.082412,148.520916 182.756172,147.484365 183.591372,146.581759 C185.438897,144.520048 187.602797,142.758372 190.003802,141.361268 C192.73511,139.751737 195.724764,138.616025 198.843413,138.003269 C199.036462,137.96542 199.058728,138.267963 198.866937,138.305551 L198.86694,138.305546 Z" id="Path" fill="#FFFFFF"></path>
                <path d="M184.716756,143.946432 C183.734315,142.512869 183.765007,140.439261 184.789257,139.048172 C184.889992,138.912303 185.071282,139.093112 184.970414,139.229163 C184.014281,140.522918 183.988964,142.456821 184.910761,143.785733 C185.007577,143.925642 184.813016,144.085543 184.716756,143.946432 L184.716756,143.946432 Z" id="Path" fill="#FFFFFF"></path>
                <path d="M180.207251,152.629024 C182.524369,152.855346 184.850881,152.285197 186.72288,151.032266 C186.90824,150.907994 187.112182,151.174137 186.927046,151.298262 C184.976306,152.598815 182.553875,153.187706 180.1432,152.947409 C179.913445,152.924362 179.978746,152.606118 180.207251,152.629038 L180.207251,152.629024 Z" id="Path" fill="#FFFFFF"></path>
                <path d="M191.249069,140.040915 C191.574251,140.472876 192.19088,140.762503 192.890009,140.811654 C193.066547,140.823692 193.016233,141.011412 192.840838,140.999452 C192.069115,140.94268 191.38815,140.62436 191.022793,140.149597 C190.982064,140.105902 190.997281,140.047783 191.057563,140.016804 C191.120134,139.987071 191.205566,139.997826 191.249069,140.040915 Z" id="Path" fill="#FFFFFF"></path>
                <polygon id="Path" fill="#3F3D56" points="108.69562 143.107846 99.4879192 136 95 140.563172 110 151"></polygon>
                <path d="M117.218086,162 L150,162 L148.850256,158.306809 L148.850256,158.306809 C141.724279,155.749425 145.726948,150.252479 138.948513,146.892496 C122.368828,138.674198 115.950154,114.14994 118.377961,104.455434 L107.512948,104 C107.512948,104 92.5082871,146.243208 117.218086,162 Z" id="Path" fill="#3F3D56"></path>
                <path d="M88.8457125,141.877965 C88.7515187,140.462617 88.0666264,139.143314 86.9456648,138.217918 C86.938174,138.211602 86.9306277,138.20523 86.9230892,138.198974 L86.9018239,138.181134 C86.1571696,137.553672 85.5997084,136.747842 85.2864553,135.846062 L85.2617992,135.775153 L85.3394731,135.769243 C85.9407728,135.722982 86.5299207,135.581511 87.0829765,135.350578 C86.4206418,135.403117 85.7541399,135.323385 85.125578,135.116421 L85.0895799,135.105968 L85.0832273,135.070493 C84.8021108,133.524198 85.2407517,131.937393 86.2837495,130.727543 C87.3267474,129.517694 88.8696678,128.805941 90.5065896,128.779538 C91.5092421,128.767671 92.4592692,128.347352 93.1192759,127.623609 L93.1653482,127.572966 C93.5928591,127.106835 94.078248,126.6926 94.6106971,126.339495 L94.651367,126.31261 L94.687254,126.345058 C95.0271936,126.652349 95.4075148,126.915785 95.81858,127.128691 C95.5195926,126.829154 95.2716955,126.486326 95.0840064,126.112814 L95.058363,126.063805 L95.1077466,126.036086 C98.4556109,124.159857 102.728743,124.889415 105.195233,127.758337 C107.661723,130.627259 107.59293,134.788019 105.032834,137.580549 C104.739448,137.900377 104.418771,138.196208 104.074133,138.46497 C102.143805,139.934539 100.582135,141.800759 99.5042675,143.926027 C99.2791274,144.378637 98.9895238,144.799081 98.6437533,145.175316 C98.5849916,145.239378 98.5223972,145.304318 98.4577355,145.368245 L98.3828647,145.442347 L98.3549423,145.342647 C98.2690534,145.04637 98.2222744,144.740932 98.215701,144.433489 C98.0850331,144.860553 98.0126981,145.302065 98.0005063,145.746971 L97.9997625,145.773681 L97.9780975,145.790744 C96.3389935,147.073366 94.0857136,147.360493 92.1540688,146.532878 C90.2224241,145.705262 88.9424419,143.904306 88.8457125,141.877965 L88.8457125,141.877965 Z" id="Path" fill="#E6E6E6"></path>
                <path d="M88.9340549,142.446162 C88.9446223,142.631686 88.9666364,142.81657 89,143 C88.428557,142.229123 88.0997775,141.339007 88.0471203,140.420237 C88.0393454,140.279587 88.0225433,140.13948 88,140 C88.5551748,140.72715 88.8777711,141.571986 88.9340549,142.446162 Z" id="Path" fill="#000000" opacity="0.15"></path>
                <path d="M88,136.367559 C87.5326733,136.676884 87.0404375,136.889573 86.536312,137 C86.3420863,136.686745 86.1628533,136.35255 86,136 C86.6433883,136.328996 87.3239153,136.454063 88,136.367559 L88,136.367559 Z" id="Path" fill="#000000" opacity="0.15"></path>
                <path d="M85.9391546,135 C85.8635394,135.333119 85.8839914,135.66925 86,136 C85.5944071,135.721921 85.2708996,135.421215 85.037641,135.105471 L85,135.054582 L85.1185716,135.050341 C85.393794,135.039752 85.6676654,135.022951 85.9391546,135 L85.9391546,135 Z" id="Path" fill="#000000" opacity="0.15"></path>
                <path d="M86.3449125,129.980018 C87.348804,128.769591 88.7854059,128.06365 90.3033923,128.034835 C91.2687899,128.022169 92.1835176,127.573564 92.8190036,126.801117 L92.8633614,126.747066 C93.274986,126.249567 93.7423378,125.807457 94.2550012,125.43059 L94.2941574,125.401899 L94.3287134,125.436527 C94.6560237,125.764498 95.0222155,126.045661 95.4180091,126.272893 C95.1301244,125.953192 94.8914312,125.587285 94.7107079,125.188629 L94.6860301,125.136326 L94.7335736,125.106746 C96.8320745,123.801502 99.3913628,123.641451 101.619425,124.676124 C103.847488,125.710796 105.475631,127.815416 106,130.338674 C104.99432,128.461222 103.323306,127.089744 101.359855,126.530294 C99.3964049,125.970843 97.3039319,126.269983 95.5493852,127.360957 L95.5018416,127.390536 L95.5265194,127.44284 C95.7072443,127.841488 95.9459375,128.207387 96.2338206,128.527082 C95.8380265,128.299852 95.4718346,128.018689 95.1445249,127.690719 L95.1099689,127.656088 L95.0708127,127.684782 C94.5581494,128.061648 94.0907975,128.503758 93.6791729,129.001258 L93.6348279,129.055309 C92.9993418,129.827756 92.0846142,130.276361 91.1192166,130.289027 C88.5454168,130.335256 86.3610768,132.307983 85.9029018,135 C85.6390679,134.949784 85.37839,134.88237 85.1223446,134.798139 L85.0876841,134.786982 L85.0815497,134.749126 C84.7978361,133.037936 85.2628417,131.282572 86.3449125,129.980018 Z" id="Path" fill="#000000" opacity="0.15"></path>
                <path d="M79.3545685,94.9671757 C82.5595398,91.8664502 84.3928739,87.3831049 84.3928739,82.6528683 C84.3928739,82.6217505 84.3928739,82.5904045 84.3926452,82.559279 L84.3924191,82.471146 C84.3912206,79.3788892 85.2132405,76.3417997 86.7744055,73.6705009 L86.8971135,73.4603915 L87.0719546,73.6296216 C88.4267202,74.9385196 89.9895126,76.0143795 91.6968261,76.8134826 C90.3663845,75.6148491 89.2517792,73.9757868 88.2286833,71.7259372 L88.1799655,71.6191813 L88.2537219,71.528097 C91.4592779,67.5472175 96.2501004,65.1650279 101.36579,65.0082493 C106.48148,64.8514707 111.409808,66.9358013 114.854199,70.7128825 C116.953428,73.0356811 119.944063,74.3575942 123.0788,74.3483006 L123.297921,74.3473929 C125.321885,74.3470931 127.338283,74.5938621 129.302175,75.0822001 L129.451972,75.1196794 L129.446624,75.2734531 C129.396119,76.7298877 129.536365,78.18667 129.863808,79.6068837 C129.979883,78.263024 130.307439,76.9458012 130.834426,75.7036616 L130.901473,75.5383033 L131.071305,75.5944056 C142.577395,79.4040098 149.613826,90.9796279 147.68206,102.920722 C145.750293,114.861816 135.421002,123.640802 123.297921,123.645089 C121.909094,123.645158 120.522678,123.529748 119.153064,123.300057 C111.165455,121.955827 103.49224,122.302674 96.3467387,124.33106 C94.7737225,124.776275 93.1463636,125.001403 91.5112812,125 C91.2330835,125 90.9448734,124.992952 90.654831,124.97887 L90.3188078,124.962742 L90.5052597,124.683131 C91.0533382,123.845368 91.7045927,123.07952 92.4437674,122.403525 C91.1283396,123.015105 89.8979797,123.794347 88.7834828,124.721746 L88.7165495,124.777387 L88.6300413,124.763305 C82.1053944,123.680317 76.7500488,119.019879 74.7881383,112.717523 C72.8262278,106.415166 74.592951,99.5476677 79.3545685,94.9671757 L79.3545685,94.9671757 Z" id="Path" fill="#E6E6E6"></path>
                <g id="Group" opacity="0.15" transform="translate(74, 66)" fill="#000000">
                    <path d="M21.5202418,0 C22.1271442,1.00379389 22.8738494,1.91671606 23.7380439,2.71148603 C22.5006328,2.13249808 21.3372786,1.40784992 20.27285,0.553032165 C20.6811703,0.352572112 21.0969675,0.168228057 21.5202418,0 Z" id="Path"></path>
                    <path d="M11.3313571,20.9394344 C10.3740124,21.8652835 9.52492877,22.8961819 8.80032952,24.0124323 C9.89080523,21.6502131 10.4527267,19.0798891 10.4471343,16.4796685 C10.4471343,16.4484209 10.4471343,16.4169467 10.4469069,16.3856964 L10.4466822,16.297203 C10.4454797,13.1923024 11.271786,10.1427944 12.8410907,7.46056752 L12.9644444,7.24959632 L13.1402112,7.41951845 C14.1107112,8.3543669 15.1882606,9.17210598 16.3506144,9.85585421 C16.0509953,14.1268263 14.2618132,18.1074839 11.3313571,20.9394344 Z" id="Path"></path>
                    <path d="M16.39551,8.39229947 L16.3957347,8.48079285 C16.3959621,8.51203278 16.3959621,8.54350699 16.3959621,8.57476494 C16.3959621,8.74696299 16.3928311,8.91872852 16.3880054,9.09022114 C15.5590104,7.97878491 14.8595037,6.77701426 14.3029629,5.50806442 L14.2540012,5.40086673 L14.3281426,5.30941258 C15.2567791,4.15774198 16.3265664,3.12658752 17.5125007,2.24004995 C16.7740907,4.20775099 16.3957714,6.29148755 16.39551,8.39229947 L16.39551,8.39229947 Z" id="Path"></path>
                    <path d="M5.38252932,28.8443509 C6.22933875,28.0234025 6.98179533,27.1110366 7.62599158,26.1241164 C5.28731977,31.0896828 5.41644863,36.8601175 7.9749203,41.716838 C10.533392,46.5735585 15.2260298,49.9562341 20.6552466,50.8574177 L20.7422116,50.8715624 L20.8094866,50.8156941 C21.9298095,49.8845098 23.1665941,49.1020829 24.4888871,48.4879952 C23.7458543,49.1667503 23.0912032,49.9357296 22.54027,50.7769183 L22.3528369,51.0576812 L22.690604,51.0738676 C22.9821709,51.0880123 23.271883,51.0950795 23.5515253,51.0950795 C25.195147,51.0964945 26.831005,50.8704455 28.4122362,50.4234082 C35.5950431,48.3867319 43.3083151,48.0384636 51.3376181,49.3881963 C52.7143803,49.6188203 54.1080326,49.7346988 55.504107,49.7346289 C61.5895265,49.7392753 67.4629099,47.5070694 72,43.4652901 C67.8921621,52.1127907 59.1554081,57.630212 49.5552792,57.6395453 C48.1592056,57.6396144 46.7655542,57.523735 45.3887928,57.2931102 C37.3594899,55.9433775 29.6462179,56.2916458 22.4634084,58.3283221 C20.8821775,58.7753606 19.2463193,59.0014096 17.6026975,59 C17.3230552,59 17.0333328,58.9929262 16.7417762,58.9787814 L16.4040091,58.9625951 L16.5914422,58.6818322 C17.1423757,57.8406437 17.7970278,57.0716652 18.5400619,56.3929116 C17.2177677,57.0069962 15.9809828,57.7894224 14.8606614,58.7206079 L14.7933838,58.7764763 L14.7064214,58.7623315 C8.14771152,57.6749177 2.7644064,52.9954214 0.792253021,46.66729 C-1.17990036,40.3391586 0.596046967,33.4435744 5.38252415,28.8443509 L5.38252932,28.8443509 Z" id="Path"></path>
                </g>
                <path d="M12.9387688,143 C7.10333333,142.999458 2.12299795,138.819285 1.16173853,133.115119 L1.15211547,133.056667 L1.19014322,133.011442 C1.8238657,132.258399 2.35634709,131.427069 2.77425966,130.538261 C2.31232952,131.037707 1.78899938,131.477746 1.21652835,131.848072 L1.02546068,131.974053 L1.01444164,131.747009 C1.00481859,131.551038 1,131.356298 1,131.168325 C0.99904153,130.063532 1.15287988,128.963958 1.45711241,127.901102 C2.84317356,123.07303 3.08018554,117.888395 2.16162778,112.491326 C2.00467356,111.565905 1.92581067,110.629132 1.92585781,109.69073 C1.9287716,101.499396 7.9277475,94.5200834 16.0875042,93.2148258 C24.2472608,91.9095683 32.1572726,96.6639599 34.7604897,104.43841 L34.7988279,104.553163 L34.6858327,104.598464 C33.8370386,104.954542 32.9369365,105.175865 32.0186325,105.254293 C32.9891115,105.475538 33.9845784,105.5703 34.979808,105.536177 L35.0848892,105.532561 L35.1104994,105.633779 C35.4441953,106.960741 35.6128199,108.323181 35.612615,109.690733 L35.6119965,109.838788 C35.6056452,111.956867 36.5089519,113.97758 38.096197,115.395987 C40.6772021,117.723292 42.1014948,121.053264 41.994363,124.509833 C41.8872312,127.966401 40.259402,131.203463 37.5391351,133.369392 L37.4768932,133.419238 L37.4039427,133.38632 C35.8665456,132.695034 34.7465221,131.941912 33.9274565,131.042965 C34.4735089,132.196563 35.2086794,133.25251 36.1030931,134.167898 L36.2187263,134.286035 L36.0751554,134.368942 C34.2497691,135.423787 32.1744274,135.979209 30.0613879,135.978401 L30.001163,135.978249 C29.9798999,135.978094 29.9584802,135.978094 29.9372146,135.978094 C26.7844788,135.945196 23.7512826,137.172304 21.5224359,139.382372 C19.2686415,141.683327 16.1744987,142.987368 12.9387688,143 L12.9387688,143 Z" id="Path" fill="#E4E4E4"></path>
                <path d="M7.64843609,162 C7.54135412,162 7.45064471,161.919485 7.43555743,161.811356 C7.42641142,161.745809 6.53047694,155.155296 7.33512825,146.396227 C8.0782267,138.307019 10.464617,126.655708 17.6133136,117.086678 C17.6599055,117.024186 17.7356613,116.991817 17.8120112,117.001778 C17.8883612,117.011739 17.9536899,117.062515 17.9833599,117.134956 C18.01303,117.207396 18.0025275,117.290482 17.9558133,117.352878 C10.8688618,126.839279 8.50170971,138.405095 7.76384708,146.43719 C6.96387518,155.14529 7.85278413,161.684408 7.86186091,161.749457 C7.87059392,161.812496 7.85209724,161.876301 7.81115712,161.92436 C7.77021701,161.97242 7.71085656,162 7.64843609,162 L7.64843609,162 Z" id="Path" fill="#3F3D56"></path>
                <path d="M12.2198956,130 C12.124687,130.000067 12.0402646,129.94406 12.0108006,129.861282 C11.9813366,129.778504 12.0135364,129.687795 12.0905521,129.636615 C14.1692381,128.350133 16.4148066,127.304956 18.7755814,126.525137 C22.4638384,125.290536 28.0723825,124.171288 33.846277,125.851469 C33.9212964,125.873062 33.9779673,125.929676 33.9948647,125.999907 C34.011762,126.070138 33.9863075,126.14327 33.9281245,126.191655 C33.8699415,126.24004 33.7879079,126.256294 33.7130374,126.234273 C28.0574339,124.588619 22.5505549,125.689362 18.9266635,126.902448 C16.603837,127.6689 14.3942812,128.696509 12.3488675,129.961616 C12.3114073,129.986576 12.2662472,130 12.2198956,130 Z" id="Path" fill="#3F3D56"></path>
                <path d="M34.5072843,121.936249 C35.0682526,121.803172 35.532695,121.460629 35.7756377,121.000792 C36.0185803,120.540956 36.015067,120.011062 35.7660431,119.553697 L40,107.537395 L36.8857617,107 L33.0133936,118.778494 C32.1392944,119.202906 31.7679951,120.129364 32.1491269,120.934993 C32.5302587,121.740622 33.5433512,122.170774 34.5072843,121.936251 L34.5072843,121.936249 Z" id="Path" fill="#FFB6B6"></path>
                <path d="M39.8988277,103.143762 C39.5573374,102.983436 39.1814939,102.956425 38.826119,103.066669 L38.826119,103.069239 C38.7063164,103.103236 38.590398,103.154139 38.4808545,103.220855 C38.3607343,103.29065 38.2484052,103.377833 38.1464473,103.480401 C37.9259023,103.697024 37.7555309,103.976463 37.651351,104.292445 L36.083546,107.525206 C35.9923424,107.71082 35.9748663,107.934556 36.0357735,108.13681 C36.0953024,108.340185 36.2269885,108.502596 36.3962384,108.581379 L36.7349885,108.738134 L38.3440515,109.485935 L38.9368642,109.763469 L39.3364156,109.948492 C39.5053605,110.027433 39.6950063,110.015169 39.8556768,109.914913 C40.0163473,109.814657 40.1320339,109.636399 40.1724335,109.426831 L40.8803344,105.806035 C41.2289709,104.750155 40.7900098,103.559502 39.8988277,103.143762 L39.8988277,103.143762 Z" id="Path" fill="#3F3D56"></path>
                <polygon id="Path" fill="#FFB6B6" points="46 159 48.0326927 159 49 151 46 151"></polygon>
                <path d="M44,162 L45.4331923,162 L45.6890072,160.922253 L46.3442023,162 L50.1454064,162 C50.5193867,162 50.8499296,161.806332 50.9612233,161.521955 C51.0725169,161.237577 50.9386979,160.928597 50.630943,160.759357 L47.5954246,159.089568 L47.5954246,158 L44.4025858,158.151786 L44,162 Z" id="Path" fill="#2F2E41"></path>
                <polygon id="Path" fill="#FFB6B6" points="27 155.933851 28.8599394 157 34 150.573457 31.254812 149"></polygon>
                <path d="M24,157.838109 L25.3121585,158.548414 L26.281063,157.544402 L26.1462352,158.999919 L29.6264224,160.88383 C29.9688052,161.0692 30.4034692,161.029798 30.6992223,160.786583 C30.9949753,160.543367 31.083088,160.152857 30.9166943,159.822761 L29.2758165,156.566343 L30.0185708,155.423147 L26.9918968,154 L24,157.838109 Z" id="Path" fill="#2F2E41"></path>
                <polygon id="Path" fill="#FFB6B6" points="47.0525772 111 48 117.865159 39 118 40.1844078 111.403937"></polygon>
                <path d="M47.19934,116.26575 L49.8098409,122.485528 L50,139.11874 L47.7723316,155 L45.3070109,155 L44.296946,139.37764 L41.8125818,128.688211 L39.3623364,139.868246 L31.7437053,150.811296 L28,150.811296 L34.8827858,138.75242 L35.6793544,125.616406 C35.6793544,125.616406 35.1828674,120.043772 37.7237662,116.755431 L38.3422432,115 L47.19934,116.26575 Z" id="Path" fill="#2F2E41"></path>
                <path d="M47.89049,105.301635 C47.88535,105.248721 47.87764,105.193272 47.86736,105.140373 C47.4646145,102.495286 44.9565989,100.667132 42.2570529,101.050884 C41.0393102,101.229796 39.9299669,101.838119 39.1370745,102.761767 L39.1370745,102.764287 C39.0959545,102.812161 39.0574045,102.862543 39.0188546,102.91295 C38.9494646,102.99862 38.8852146,103.089329 38.8235347,103.180039 C38.2664579,104.00524 37.9795427,104.977487 38.0011351,105.966838 L38.0011351,105.969358 C38.009198,106.350603 38.0635508,106.729549 38.163045,107.098188 C38.3342292,107.743006 38.4689312,108.396608 38.5665348,109.056003 C38.6333548,109.474275 38.6847547,109.884988 38.7233047,110.285621 C38.7464347,110.487198 38.7644247,110.686255 38.7798447,110.880273 L38.7798447,110.882793 C38.8569447,111.842802 38.8826446,112.704543 38.9057746,113.372266 C38.9160546,113.735105 38.9263346,114.03747 38.9443246,114.269283 C38.9447645,114.284514 38.9464836,114.299684 38.9494646,114.314638 C38.9692107,114.47042 39.0374077,114.616462 39.1447845,114.73291 C39.157999,114.749224 39.1726158,114.764398 39.1884745,114.778264 C39.3024742,114.878803 39.4402867,114.949826 39.5893943,114.984881 C39.6410081,114.995019 39.6935248,115 39.7461642,115 L39.7615996,115 L41.259896,114.314638 L42.4420954,113.77542 L46.4538633,111.941071 C46.7905353,111.93433 47.0875853,111.723434 47.199163,111.411932 L47.199163,111.409412 C47.2043029,111.389254 47.2120129,111.369097 47.2171529,111.346419 C47.4330328,110.512395 47.8159626,109.617898 47.9521726,108.179144 C47.9701626,107.972528 47.9855825,107.758352 47.9932925,107.529059 L47.9932925,107.526539 C48.0158515,106.783427 47.9814875,106.039703 47.89049,105.301635 L47.89049,105.301635 Z" id="Path" fill="#3F3D56"></path>
                <circle id="Oval" fill="#FFB6B6" cx="42" cy="97" r="4"></circle>
                <path d="M38.3548389,103 C36.5030007,103.002094 35.0023778,104.320331 35,105.947103 L35,112.055416 C34.9993794,113.472109 36.1476083,114.688238 37.7326167,114.949622 L37.735484,114.949622 C37.9397381,114.983077 38.1470648,115 38.3548389,115 L43,115 L43,103 L38.3548389,103 Z" id="Path" fill="#00B4D8"></path>
                <path d="M38,103 L38,107.483021 C38,107.768541 38.2238576,108 38.5,108 C38.7761424,108 39,107.768541 39,107.483021 L39,103 L38,103 Z" id="Path" fill="#3F3D56"></path>
                <path d="M40.3932982,111 L37.6043395,111 C37.4436759,111.00009 37.2896522,111.066766 37.176268,111.18531 C37.0628838,111.303854 36.9994623,111.464518 37,111.631837 L37,113.368163 C36.9997024,113.716286 37.2700672,113.998953 37.6043395,114 L40.3932982,114 C40.7280351,113.999159 40.999192,113.716768 41,113.368163 L41,111.631837 C41,111.46426 40.9360914,111.303545 40.8223108,111.185051 C40.7085303,111.066556 40.5542082,111 40.3932982,111 L40.3932982,111 Z" id="Path" fill="#3F3D56"></path>
                <path d="M46.6259066,111 C47.545143,109.896678 48.0303601,108.525541 47.9985277,107.121218 C47.9985277,104.297331 46.2199279,102 44.0337436,102 C42.860052,102 41.7543043,102.66337 41,103.819987 L41.3292017,104.011997 C42.0115008,102.965854 42.9972672,102.3658 44.0337436,102.3658 C46.0066462,102.3658 47.6117213,104.499075 47.6117213,107.121218 C47.6438827,108.438998 47.1911142,109.726439 46.3307948,110.763515 L46.6259066,111 Z" id="Path" fill="#00B4D8"></path>
                <path d="M53.8228074,120.038362 C54.0473406,119.58764 54.0590339,119.061436 53.8547407,118.601342 C53.6504476,118.141248 53.2511535,117.794524 52.7643001,117.654468 L46.20329,107 L44,108.661691 L50.5917628,118.925502 C50.40462,119.770767 50.8845389,120.621258 51.7088632,120.905178 C52.5331875,121.189098 53.4413618,120.816704 53.8228074,120.038362 L53.8228074,120.038362 Z" id="Path" fill="#FFB6B6"></path>
                <path d="M48.8447696,107.138796 L47.5486597,105.535579 L46.8554593,104.67882 L46.4040053,104.119618 C46.2622694,103.8734 46.065055,103.6552 45.8243966,103.478331 C44.9776475,102.85412 43.7495978,102.83932 42.8837719,103.442892 C42.0179459,104.046463 41.7523192,105.102513 42.2477157,105.971654 L43.5933399,109.498731 C43.6719712,109.701864 43.8468526,109.864931 44.0726404,109.945653 C44.2984282,110.026376 44.5528844,110.016802 44.770033,109.919416 L45.2040114,109.724464 L45.8884739,109.416647 L46.5030339,109.142176 L46.5059465,109.142176 L47.6447757,108.629146 L48.0321524,108.457282 L48.5447711,108.226418 C48.7612908,108.127824 48.9186628,107.951422 48.976202,107.742818 C49.0337411,107.534214 48.9857988,107.313886 48.8447696,107.138796 L48.8447696,107.138796 Z" id="Path" fill="#3F3D56"></path>
                <path d="M226.765047,162.05 L1.23572915,162.05 C1.15160395,162.050059 1.07375007,162.040542 1.03160717,162.025048 C0.989464275,162.009553 0.989464275,161.990447 1.03160717,161.974952 C1.07375007,161.959458 1.15160395,161.949941 1.23572915,161.95 L226.765047,161.95 C226.894808,161.95 227,161.972386 227,162 C227,162.027614 226.894808,162.05 226.765047,162.05 L226.765047,162.05 Z" id="Path" fill="#CCCCCC"></path>
                <path d="M119.833638,142.830592 C118.780304,141.027474 118.633263,138.664237 119.926594,137 C120.566262,139.148641 122.007346,141.018844 123.994876,142.279716 C124.76329,142.763412 125.672427,143.227427 125.935298,144.051816 C126.073581,144.577348 125.988374,145.131906 125.697262,145.601043 C125.406672,146.064172 125.053101,146.490973 124.645185,146.871022 L124.607943,147 C122.701076,145.955255 120.886972,144.633707 119.833638,142.830592 Z" id="Path" fill="#E6E6E6"></path>
                <path d="M58.833638,95.8305919 C57.7803044,94.0274739 57.6332629,91.664237 58.9265941,90 C59.5662622,92.1486413 61.007346,94.0188441 62.9948761,95.2797156 C63.7632898,95.7634123 64.6724265,96.2274272 64.9352981,97.0518158 C65.0735813,97.5773476 64.9883745,98.1319059 64.6972622,98.6010429 C64.4066718,99.0641722 64.0531011,99.4909729 63.6451847,99.8710216 L63.6079434,100 C61.7010762,98.9552548 59.8869717,97.6337074 58.833638,95.8305919 Z" id="Path" fill="#E6E6E6"></path>
                <path d="M40,92.9972896 L40,93.0000522 C40.0003836,93.1708747 39.9785935,93.3410249 39.935171,93.5062372 C39.928267,93.5352068 39.9199923,93.5655444 39.9103364,93.5945141 L39.9103364,93.5958927 C39.7227525,94.1939887 39.2658904,94.6697251 38.6758609,94.8813678 C38.6331036,94.8979165 38.588965,94.9117054 38.5448264,94.9241236 C38.451837,94.9510882 38.3568123,94.9704605 38.2606882,94.9820496 C38.1743359,94.9942899 38.0872129,95.0002831 38,95 C37.931832,95.0002701 37.8636965,94.9970473 37.7958622,94.9903266 C37.6371283,94.9742571 37.480997,94.938583 37.3310362,94.8841197 C37.307551,94.8772956 37.2845173,94.869004 37.262071,94.8592939 C37.2507964,94.8552895 37.2397434,94.8506867 37.228959,94.845505 C36.7232901,94.6338422 36.3265378,94.2240917 36.1312901,93.7118749 C35.9360424,93.1996582 35.9593809,92.6297874 36.1958592,92.1352505 L36.1972406,92.1338718 C36.295292,91.928564 36.428311,91.7418766 36.5903493,91.5821578 C36.9644597,91.2089028 37.471522,90.9995369 38,91.0001141 C38.026235,90.9996565 38.0524781,91.0005751 38.0786191,91.002866 C38.6953271,91.0283549 39.2660364,91.3360839 39.6261981,91.8373275 C39.7800724,92.0507195 39.8898035,92.292678 39.9489603,92.5490227 C39.9828014,92.696046 39.9999215,92.8464222 40,92.9972896 L40,92.9972896 Z" id="Path" fill="#2F2E41"></path>
                <path d="M37.9280194,92.4508088 C37.5782468,91.0789683 36.4238914,90.0941823 35.0626618,90.0063585 C33.7014322,89.9185347 32.439031,90.7473966 31.9291113,92.0637715 C31.5124143,93.1394898 31.6651519,94.3601095 31.4155475,95.4904824 C30.8983064,97.6000821 29.0916878,99.0910136 27,99.1344608 L30.7755948,100.717664 C31.1787445,100.932221 31.6307492,101.027509 32.0823532,100.993144 C32.739307,100.87727 33.1964335,100.224265 33.3815074,99.5581293 C33.5665814,98.8919939 33.5515668,98.1845411 33.668709,97.5019191 C33.9773904,95.7993181 35.0735381,94.3649141 36.5980886,93.6685727 C37.0231761,93.4795383 37.4956017,93.3370702 37.7961807,92.9715717 C38.0967597,92.6060732 38.0800173,91.9165686 37.6444027,91.7555682" id="Path" fill="#2F2E41"></path>
                <path d="M43.7209582,91.880663 C43.1839927,90.7458537 41.7672171,90.9767498 40.4862137,91.1264403 C39.1875403,91.3202408 38.0713799,92.1213568 37.5033018,93.2674037 C36.9557683,94.4114531 36.8510916,95.707611 37.2083197,96.920015 C37.3999484,97.7457651 37.8573037,98.4914978 38.5146591,99.0500438 C39.1911878,99.5762687 42.3715074,100.820804 42.6362561,99.7491713 C42.3052972,101.14724 42.971128,100.928398 43.9567182,102 C44.4672035,100.516805 44.7065186,97.7221937 45.2169957,96.2390009 L45.447522,95.5692151 C45.6094979,95.0986049 45.771707,94.6271999 45.8887491,94.1442886 C46.0357777,93.5376528 46.0923612,92.8420295 45.7027687,92.3458099 C45.3131763,91.8495903 44.3317242,91.8302862 44.1348128,92.4235429" id="Path" fill="#2F2E41"></path>
                <path d="M43.125878,97 L43,96.1099311 C43.085546,95.0029289 42.945898,93.2420948 43.6,93 L44,93.4442759 C43.746972,93.5379892 43.265722,95.1933944 43.125878,97 Z" id="Path" fill="#FF6584"></path>
            </g>
        </g>
    </g>
</svg>
